<svg xmlns="http://www.w3.org/2000/svg" width="815.69" height="672.161" viewBox="0 0 815.69 672.161">
  <g id="EBF_Logo" data-name="EBF Logo" transform="translate(-266 -176.839)">
    <g id="Group_818" data-name="Group 818">
      <g id="Group_813" data-name="Group 813">
        <g id="Group_817" data-name="Group 817">
          <g id="Group_811" data-name="Group 811">
            <g id="Group_816" data-name="Group 816">
              <path id="Subtraction_12" data-name="Subtraction 12" d="M1530,83,1319-242h422L1530,83Zm2.2-170.8h0c.118.037,12.763,7.616,24.6,14.729,12.177,7.316,24.484,14.73,24.53,14.8l-15-53.481c.771-2.589,11.707-13.139,20.746-21.532,9.891-9.185,19.8-17.905,20.113-18.051l-56.161-.746L1532.2-203.14,1513.5-151.972l-56.3.642c.1.284,23.358,22.708,34.534,33.485l.014.014.13.126c3.716,3.584,6.171,5.951,6.184,5.97l-15.016,53.448c.092-.133,13.29-8.075,24.563-14.836,11.732-7.036,24.469-14.647,24.59-14.673Z" transform="translate(-880.2 766)" fill="#000c36"/>
              <path id="Union_2" data-name="Union 2" d="M2344.383,160.442H1845V121h524.99l-25.607,39.443h0Z" transform="translate(-1441.3 298.557)" fill="#000c36"/>
              <path id="Union_3" data-name="Union 3" d="M2344.383,160.442H1841.607L1816,121h553.99l-25.607,39.443h0Z" transform="translate(-1411.3 350.422)" fill="#000c36"/>
              <path id="Union_1" data-name="Union 1" d="M2364.383,160.442H1792V121h597.99l-25.608,39.443h0Z" transform="translate(-1364 246.693)" fill="#000c36"/>
              <path id="Union_4" data-name="Union 4" d="M2364.383,160.442h-506.24l-.142-.2V121h531.99l-25.608,39.443h0Z" transform="translate(-1392 191.693)" fill="#000c36"/>
              <path id="Union_5" data-name="Union 5" d="M2369.577,152.442H1787.414L1767,121H2389.99l-20.414,31.442h0Z" transform="translate(-1308.3 161)" fill="#000c36"/>
              <path id="eagle_head" data-name="eagle head" d="M562.561,281.725c-2.909-13.332-10.952-25.318-24-30.451-3.062-1.205-10.543-3.516-13.47-3.516H487.619L498.71,210.9c13.685.018,29.416,4.015,40.26-7.2,6.905-7.145,7.272-19.423,8.612-28.853l108.387.009,70.963,106.877S562.884,282.453,562.561,281.725Z" transform="translate(21.381 2)" fill="#000c36"/>
              <path id="Subtraction_13" data-name="Subtraction 13" d="M1441-31h0L1319-242h244L1441-31Zm-2.316-70.867h0c.063.024,9.462,5.674,9.487,5.7l-2.9-10.328c.149-.5,2.261-2.537,4.007-4.158,1.911-1.775,3.824-3.458,3.884-3.485l-10.845-.144-3.637-9.861-3.61,9.881-10.873.124c.019.053,4.24,4.124,6.507,6.311l.048.046.019.018c.761.734,1.312,1.265,1.317,1.271l-2.9,10.321c.021-.031,9.426-5.675,9.492-5.7Zm28-43.083h0c.063.024,9.462,5.673,9.487,5.7l-2.9-10.327c.149-.5,2.261-2.538,4.007-4.159,1.911-1.775,3.824-3.458,3.883-3.485l-10.845-.144-3.637-9.86-3.61,9.881-10.873.123c.02.055,4.528,4.4,6.694,6.492l0,0c.739.712,1.188,1.145,1.192,1.151l-2.9,10.322c.021-.031,9.427-5.676,9.492-5.7Zm-56,0h0c.063.024,9.462,5.673,9.487,5.7l-2.9-10.327c.149-.5,2.261-2.538,4.007-4.159,1.911-1.775,3.824-3.458,3.884-3.485l-10.845-.144-3.637-9.86-3.61,9.881-10.874.123c.02.055,4.522,4.4,6.685,6.482l.108.1c.659.635,1.094,1.055,1.1,1.06l-2.9,10.322c.021-.031,9.426-5.676,9.492-5.7Zm28-43.084h0c.063.024,9.462,5.673,9.487,5.7l-2.9-10.327c.149-.5,2.261-2.538,4.007-4.159,1.911-1.774,3.824-3.457,3.884-3.485l-10.845-.144-3.637-9.861-3.61,9.881-10.873.124c.02.055,4.523,4.4,6.688,6.485l.01.01.1.094c.656.633,1.09,1.051,1.094,1.056l-2.9,10.322c.021-.031,9.427-5.676,9.492-5.7Zm-55.95,0h0c.063.024,9.462,5.673,9.487,5.7l-2.9-10.327c.148-.5,2.26-2.538,4.006-4.159,1.911-1.774,3.823-3.457,3.883-3.485l-10.845-.144-3.637-9.861-3.61,9.881-10.873.124c.02.056,4.62,4.491,6.831,6.623l.025.024.157.151.879.848-2.9,10.322c.021-.031,9.427-5.676,9.492-5.7Zm111.95-.13h0c.063.024,9.462,5.673,9.487,5.7l-2.9-10.327c.149-.5,2.261-2.538,4.007-4.159,1.911-1.775,3.823-3.458,3.883-3.485l-10.845-.144-3.637-9.86-3.61,9.881-10.873.123c.02.055,4.518,4.393,6.679,6.477l.014.014c.718.692,1.192,1.149,1.2,1.155l-2.9,10.322c.021-.031,9.427-5.676,9.492-5.7Z" transform="translate(-1053 524)" fill="#000c36"/>
            </g>
          </g>
        </g>
      </g>
    </g>
  </g>
</svg>
