<svg xmlns="http://www.w3.org/2000/svg" width="815.691" height="672.161" viewBox="0 0 815.691 672.161">
  <g id="EBF_Logo" data-name="EBF Logo" transform="translate(-266 -176.839)">
    <g id="Group_818" data-name="Group 818">
      <g id="Group_813" data-name="Group 813">
        <g id="Group_817" data-name="Group 817">
          <g id="Group_811" data-name="Group 811">
            <g id="Group_816" data-name="Group 816">
              <path id="Polygon_2" data-name="Polygon 2" d="M211,0,422,325H0Z" transform="translate(860.8 849) rotate(180)" fill="#00277b"/>
              <path id="big_star" data-name="big star" d="M501.518,403.709l56.169.746c.049-.312-39.386,34.607-40.867,39.583l15,53.482c.05-.059-48.944-29.485-49.132-29.532-.214.039-49.232,29.408-49.152,29.511l15.017-53.45c.045.017-40.725-39.215-40.862-39.593l56.3-.642,18.694-51.167Z" transform="translate(169.313 210.214)" fill="#fff"/>
              <path id="Union_2" data-name="Union 2" d="M2344.383,160.442H1841.607L1816,121h553.99l-25.607,39.443h0Z" transform="translate(-1441.3 298.557)" fill="#f20400"/>
              <path id="Union_3" data-name="Union 3" d="M2344.383,160.442H1841.607L1816,121h553.99l-25.607,39.443h0Z" transform="translate(-1411.3 350.422)" fill="#f20400"/>
              <path id="Union_1" data-name="Union 1" d="M2364.383,160.442H1792.607L1767,121H2389.99l-25.608,39.443h0Z" transform="translate(-1364 246.693)" fill="#f20400"/>
              <path id="Union_4" data-name="Union 4" d="M2364.383,160.442H1792.607L1767,121H2389.99l-25.608,39.443h0Z" transform="translate(-1392 191.693)" fill="#f20400"/>
              <path id="Union_5" data-name="Union 5" d="M2369.577,152.442H1787.414L1767,121H2389.99l-20.414,31.442h0Z" transform="translate(-1308.3 161)" fill="#00277b"/>
              <path id="eagle_head" data-name="eagle head" d="M562.561,281.725c-2.909-13.332-10.952-25.318-24-30.451-3.062-1.205-10.543-3.516-13.47-3.516H487.619L498.71,210.9c13.685.018,29.416,4.015,40.26-7.2,6.905-7.145,7.272-19.423,8.612-28.853l108.387.009,70.963,106.877S562.884,282.453,562.561,281.725Z" transform="translate(21.381 2)" fill="#00277b"/>
              <path id="Polygon_1" data-name="Polygon 1" d="M122,0,244,211H0Z" transform="translate(510 493) rotate(180)" fill="#00277b"/>
              <g id="stars" transform="translate(1.25 8)">
                <path id="Star_6" data-name="Star 6" d="M425.807,362.507l10.847.144c.009-.06-7.606,6.683-7.892,7.644l2.9,10.328c.01-.011-9.452-5.694-9.488-5.7-.041.008-9.507,5.679-9.492,5.7l2.9-10.322c.009,0-7.865-7.573-7.891-7.646l10.873-.124,3.61-9.881Z" transform="translate(-37.737 39.214)" fill="#fff"/>
                <path id="Star_5" data-name="Star 5" d="M425.807,362.507l10.847.144c.009-.06-7.606,6.683-7.892,7.644l2.9,10.328c.01-.011-9.452-5.694-9.488-5.7-.041.008-9.507,5.679-9.492,5.7l2.9-10.322c.009,0-7.865-7.573-7.891-7.646l10.873-.124,3.61-9.881Z" transform="translate(-9.737 -3.869)" fill="#fff"/>
                <path id="Star_4" data-name="Star 4" d="M425.807,362.507l10.847.144c.009-.06-7.606,6.683-7.892,7.644l2.9,10.328c.01-.011-9.452-5.694-9.488-5.7-.041.008-9.507,5.679-9.492,5.7l2.9-10.322c.009,0-7.865-7.573-7.891-7.646l10.873-.124,3.61-9.881Z" transform="translate(-65.737 -3.869)" fill="#fff"/>
                <path id="Star_3" data-name="Star 3" d="M425.807,362.507l10.847.144c.009-.06-7.606,6.683-7.892,7.644l2.9,10.328c.01-.011-9.452-5.694-9.488-5.7-.041.008-9.507,5.679-9.492,5.7l2.9-10.322c.009,0-7.865-7.573-7.891-7.646l10.873-.124,3.61-9.881Z" transform="translate(18.263 -47.084)" fill="#fff"/>
                <path id="Star_2" data-name="Star 2" d="M425.807,362.507l10.847.144c.009-.06-7.606,6.683-7.892,7.644l2.9,10.328c.01-.011-9.452-5.694-9.488-5.7-.041.008-9.507,5.679-9.492,5.7l2.9-10.322c.009,0-7.865-7.573-7.891-7.646l10.873-.124,3.61-9.881Z" transform="translate(-37.737 -46.953)" fill="#fff"/>
                <path id="Star_1" data-name="Star 1" d="M425.807,362.507l10.847.144c.009-.06-7.606,6.683-7.892,7.644l2.9,10.328c.01-.011-9.452-5.694-9.488-5.7-.041.008-9.507,5.679-9.492,5.7l2.9-10.322c.009,0-7.865-7.573-7.891-7.646l10.873-.124,3.61-9.881Z" transform="translate(-93.687 -46.953)" fill="#fff"/>
              </g>
            </g>
          </g>
        </g>
      </g>
    </g>
  </g>
</svg>
